<svg width="24" height="24" viewBox="0 0 24 24" fill="none" xmlns="http://www.w3.org/2000/svg">
<g clip-path="url(#clip0_1792_90275)">
<g clip-path="url(#clip1_1792_90275)">
<path opacity="0.301" d="M20 0H4C1.79086 0 0 1.79086 0 4V20C0 22.2091 1.79086 24 4 24H20C22.2091 24 24 22.2091 24 20V4C24 1.79086 22.2091 0 20 0Z" fill="#F8E8E8"/>
<path d="M17.0245 12.9661L12.5245 17.4131C12.4576 17.4856 12.3765 17.5435 12.2861 17.5831C12.1958 17.6227 12.0982 17.6432 11.9995 17.6432C11.9009 17.6432 11.8033 17.6227 11.7129 17.5831C11.6226 17.5435 11.5414 17.4856 11.4745 17.4131L6.97451 12.9661C6.84467 12.8339 6.76589 12.6601 6.75216 12.4753C6.73842 12.2906 6.79064 12.1069 6.89951 11.9571C6.9604 11.8669 7.04108 11.7919 7.13539 11.7377C7.22969 11.6835 7.33514 11.6516 7.44367 11.6443C7.5522 11.6371 7.66095 11.6548 7.76161 11.696C7.86228 11.7372 7.9522 11.8008 8.02451 11.8821L11.2495 15.0961V7.17407C11.2495 6.97516 11.3285 6.78439 11.4692 6.64374C11.6098 6.50309 11.8006 6.42407 11.9995 6.42407C12.1984 6.42407 12.3892 6.50309 12.5298 6.64374C12.6705 6.78439 12.7495 6.97516 12.7495 7.17407V15.0961L15.9745 11.8821C16.0468 11.8008 16.1368 11.7372 16.2374 11.696C16.3381 11.6548 16.4468 11.6371 16.5554 11.6443C16.6639 11.6516 16.7693 11.6835 16.8636 11.7377C16.9579 11.7919 17.0386 11.8669 17.0995 11.9571C17.2084 12.1069 17.2606 12.2906 17.2469 12.4753C17.2331 12.6601 17.1544 12.8339 17.0245 12.9661Z" fill="#F45050" stroke="#F45050" stroke-width="0.5"/>
</g>
<path opacity="0.301" d="M20 0H4C1.79086 0 0 1.79086 0 4V20C0 22.2091 1.79086 24 4 24H20C22.2091 24 24 22.2091 24 20V4C24 1.79086 22.2091 0 20 0Z" fill="#F8E8E8"/>
<path d="M17.0245 12.9661L12.5245 17.4131C12.4576 17.4856 12.3765 17.5435 12.2861 17.5831C12.1958 17.6227 12.0982 17.6432 11.9995 17.6432C11.9009 17.6432 11.8033 17.6227 11.7129 17.5831C11.6226 17.5435 11.5414 17.4856 11.4745 17.4131L6.97451 12.9661C6.84467 12.8339 6.76589 12.6601 6.75216 12.4753C6.73842 12.2906 6.79064 12.1069 6.89951 11.9571C6.9604 11.8669 7.04108 11.7919 7.13539 11.7377C7.22969 11.6835 7.33514 11.6516 7.44367 11.6443C7.5522 11.6371 7.66095 11.6548 7.76161 11.696C7.86228 11.7372 7.9522 11.8008 8.02451 11.8821L11.2495 15.0961V7.17407C11.2495 6.97516 11.3285 6.78439 11.4692 6.64374C11.6098 6.50309 11.8006 6.42407 11.9995 6.42407C12.1984 6.42407 12.3892 6.50309 12.5298 6.64374C12.6705 6.78439 12.7495 6.97516 12.7495 7.17407V15.0961L15.9745 11.8821C16.0468 11.8008 16.1368 11.7372 16.2374 11.696C16.3381 11.6548 16.4468 11.6371 16.5554 11.6443C16.6639 11.6516 16.7693 11.6835 16.8636 11.7377C16.9579 11.7919 17.0386 11.8669 17.0995 11.9571C17.2084 12.1069 17.2606 12.2906 17.2469 12.4753C17.2331 12.6601 17.1544 12.8339 17.0245 12.9661Z" fill="#F45050" stroke="#F45050" stroke-width="0.5"/>
</g>
<defs>
<clipPath id="clip0_1792_90275">
<rect width="24" height="24" fill="white"/>
</clipPath>
<clipPath id="clip1_1792_90275">
<rect width="24" height="24" fill="white"/>
</clipPath>
</defs>
</svg>
