<svg width="36" height="36" viewBox="0 0 36 36" fill="none" xmlns="http://www.w3.org/2000/svg">
    <circle cx="18" cy="18" r="18" fill="#D62884"/>
    <mask id="mtxbiuek9a" style="mask-type:alpha" maskUnits="userSpaceOnUse" x="6" y="6" width="24" height="24">
        <path fill="#D9D9D9" d="M6 6h24v24H6z"/>
    </mask>
    <g mask="url(#mtxbiuek9a)">
        <path d="M18 28a9.733 9.733 0 0 1-3.9-.788 10.092 10.092 0 0 1-3.175-2.137c-.9-.9-1.612-1.958-2.137-3.175A9.733 9.733 0 0 1 8 18c0-1.383.263-2.683.788-3.9a10.091 10.091 0 0 1 2.137-3.175c.9-.9 1.958-1.613 3.175-2.138A9.743 9.743 0 0 1 18 8c1.467 0 2.854.3 4.163.9a9.86 9.86 0 0 1 3.387 2.55L18 19v-9c-2.233 0-4.125.775-5.675 2.325C10.775 13.875 10 15.767 10 18c0 2.233.775 4.125 2.325 5.675C13.875 25.225 15.767 26 18 26c1.15 0 2.25-.237 3.3-.712A7.628 7.628 0 0 0 24 23.25V26a11.029 11.029 0 0 1-2.85 1.475A9.61 9.61 0 0 1 18 28zm8-4v-8h2v8h-2zm1 4a.965.965 0 0 1-.712-.288A.965.965 0 0 1 26 27c0-.283.096-.52.288-.712A.965.965 0 0 1 27 26c.283 0 .52.096.712.288A.965.965 0 0 1 28 27c0 .283-.096.52-.288.712A.965.965 0 0 1 27 28z" fill="#fff"/>
    </g>
</svg>
