<svg width="24" height="24" viewBox="0 0 24 24" fill="none" xmlns="http://www.w3.org/2000/svg">
<g clip-path="url(#clip0_1792_90258)">
<path opacity="0.301" d="M20 0H4C1.79086 0 0 1.79086 0 4V20C0 22.2091 1.79086 24 4 24H20C22.2091 24 24 22.2091 24 20V4C24 1.79086 22.2091 0 20 0Z" fill="#E0FADD"/>
<path d="M17.0241 11.034L12.5241 6.58702C12.4572 6.51448 12.3761 6.45658 12.2857 6.41698C12.1953 6.37738 12.0978 6.35693 11.9991 6.35693C11.9004 6.35693 11.8029 6.37738 11.7125 6.41698C11.6221 6.45658 11.541 6.51448 11.4741 6.58702L6.9741 11.034C6.84451 11.1661 6.76589 11.3398 6.75216 11.5243C6.73843 11.7088 6.79049 11.8922 6.8991 12.042C6.95999 12.1322 7.04066 12.2072 7.13497 12.2614C7.22928 12.3156 7.33472 12.3475 7.44325 12.3548C7.55178 12.362 7.66053 12.3443 7.76119 12.3031C7.86186 12.2619 7.95178 12.1983 8.0241 12.117L11.2491 8.90402V16.826C11.2491 17.0249 11.3281 17.2157 11.4688 17.3564C11.6094 17.497 11.8002 17.576 11.9991 17.576C12.198 17.576 12.3888 17.497 12.5294 17.3564C12.6701 17.2157 12.7491 17.0249 12.7491 16.826V8.90402L15.9741 12.118C16.0464 12.1993 16.1363 12.2629 16.237 12.3041C16.3377 12.3453 16.4464 12.363 16.5549 12.3558C16.6635 12.3485 16.7689 12.3166 16.8632 12.2624C16.9575 12.2082 17.0382 12.1332 17.0991 12.043C17.208 11.8931 17.2602 11.7095 17.2465 11.5248C17.2327 11.34 17.1539 11.1662 17.0241 11.034Z" fill="#3FC96A" stroke="#3FC96A" stroke-width="0.5"/>
</g>
<defs>
<clipPath id="clip0_1792_90258">
<rect width="24" height="24" fill="white"/>
</clipPath>
</defs>
</svg>
